REM DIRINDEX 1\2,1\4,1\3\5,1\3\6,1\3\7
REM DIRNAME cjc081,folder01,folder02,folder03,folder04,folder05,folder06
TITLE ""
FILE "CD2Track49.mp3" MP3
  TRACK 01 AUDIO
    TITLE "0:"
    INDEX 01 00:00:00
  TRACK 02 AUDIO
    TITLE "5:cjc081_2036"
    INDEX 01 00:00:29
  TRACK 03 AUDIO
    TITLE "0:"
    INDEX 01 00:01:66
  TRACK 04 AUDIO
    TITLE "6:cjc081_2037"
    INDEX 01 00:02:38
  TRACK 05 AUDIO
    TITLE "0:"
    INDEX 01 00:03:49
  TRACK 06 AUDIO
    TITLE "5:cjc081_2038"
    INDEX 01 00:04:21
  TRACK 07 AUDIO
    TITLE "0:"
    INDEX 01 00:05:36
  TRACK 08 AUDIO
    TITLE "6:cjc081_2039"
    INDEX 01 00:06:04
  TRACK 09 AUDIO
    TITLE "0:"
    INDEX 01 00:08:50
  TRACK 10 AUDIO
    TITLE "5:cjc081_2040"
    INDEX 01 00:09:18
  TRACK 11 AUDIO
    TITLE "0:"
    INDEX 01 00:10:51
  TRACK 12 AUDIO
    TITLE "6:cjc081_2041"
    INDEX 01 00:11:19
  TRACK 13 AUDIO
    TITLE "0:"
    INDEX 01 00:13:57
  TRACK 14 AUDIO
    TITLE "5:cjc081_2042"
    INDEX 01 00:14:27
  TRACK 15 AUDIO
    TITLE "0:"
    INDEX 01 00:15:52
  TRACK 16 AUDIO
    TITLE "6:cjc081_2043"
    INDEX 01 00:16:22
  TRACK 17 AUDIO
    TITLE "0:"
    INDEX 01 00:18:54
  TRACK 18 AUDIO
    TITLE "5:cjc081_2044"
    INDEX 01 00:19:28
  TRACK 19 AUDIO
    TITLE "0:"
    INDEX 01 00:20:47
  TRACK 20 AUDIO
    TITLE "6:cjc081_2045"
    INDEX 01 00:21:15
  TRACK 21 AUDIO
    TITLE "0:"
    INDEX 01 00:23:18
  TRACK 22 AUDIO
    TITLE "5:cjc081_2046"
    INDEX 01 00:23:55
  TRACK 23 AUDIO
    TITLE "0:"
    INDEX 01 00:25:05
  TRACK 24 AUDIO
    TITLE "6:cjc081_2047"
    INDEX 01 00:25:50
  TRACK 25 AUDIO
    TITLE "0:"
    INDEX 01 00:27:22
  TRACK 26 AUDIO
    TITLE "5:cjc081_2048"
    INDEX 01 00:27:69
  TRACK 27 AUDIO
    TITLE "0:"
    INDEX 01 00:29:05
  TRACK 28 AUDIO
    TITLE "6:cjc081_2049"
    INDEX 01 00:29:48
  TRACK 29 AUDIO
    TITLE "0:"
    INDEX 01 00:33:13
  TRACK 30 AUDIO
    TITLE "5:cjc081_2050"
    INDEX 01 00:33:56
  TRACK 31 AUDIO
    TITLE "0:"
    INDEX 01 00:35:12
  TRACK 32 AUDIO
    TITLE "6:cjc081_2051"
    INDEX 01 00:35:64
  TRACK 33 AUDIO
    TITLE "0:"
    INDEX 01 00:39:11
  TRACK 34 AUDIO
    TITLE "5:cjc081_2052"
    INDEX 01 00:39:56
  TRACK 35 AUDIO
    TITLE "0:"
    INDEX 01 00:40:64
  TRACK 36 AUDIO
    TITLE "6:cjc081_2053"
    INDEX 01 00:41:36
  TRACK 37 AUDIO
    TITLE "0:"
    INDEX 01 00:45:30
  TRACK 38 AUDIO
    TITLE "5:cjc081_2054"
    INDEX 01 00:46:02
  TRACK 39 AUDIO
    TITLE "0:"
    INDEX 01 00:47:15
  TRACK 40 AUDIO
    TITLE "6:cjc081_2055"
    INDEX 01 00:47:64
  TRACK 41 AUDIO
    TITLE "0:"
    INDEX 01 00:49:27
  TRACK 42 AUDIO
    TITLE "5:cjc081_2056"
    INDEX 01 00:49:65
  TRACK 43 AUDIO
    TITLE "0:"
    INDEX 01 00:51:09
  TRACK 44 AUDIO
    TITLE "6:cjc081_2057"
    INDEX 01 00:51:56
  TRACK 45 AUDIO
    TITLE "0:"
    INDEX 01 00:53:04
  TRACK 46 AUDIO
    TITLE "5:cjc081_2058"
    INDEX 01 00:53:45
  TRACK 47 AUDIO
    TITLE "0:"
    INDEX 01 00:55:04
  TRACK 48 AUDIO
    TITLE "6:cjc081_2059"
    INDEX 01 00:55:50
  TRACK 49 AUDIO
    TITLE "0:"
    INDEX 01 00:57:66
  TRACK 50 AUDIO
    TITLE "5:cjc081_2060"
    INDEX 01 00:58:34
  TRACK 51 AUDIO
    TITLE "0:"
    INDEX 01 01:00:17
  TRACK 52 AUDIO
    TITLE "6:cjc081_2061"
    INDEX 01 01:00:64
  TRACK 53 AUDIO
    TITLE "0:"
    INDEX 01 01:02:32
  TRACK 54 AUDIO
    TITLE "5:cjc081_2062"
    INDEX 01 01:03:00
  TRACK 55 AUDIO
    TITLE "0:"
    INDEX 01 01:04:07
  TRACK 56 AUDIO
    TITLE "6:cjc081_2063"
    INDEX 01 01:04:54
  TRACK 57 AUDIO
    TITLE "0:"
    INDEX 01 01:09:10
  TRACK 58 AUDIO
    TITLE "5:cjc081_2064"
    INDEX 01 01:09:50
  TRACK 59 AUDIO
    TITLE "0:"
    INDEX 01 01:11:02
  TRACK 60 AUDIO
    TITLE "6:cjc081_2065"
    INDEX 01 01:11:47
  TRACK 61 AUDIO
    TITLE "0:"
    INDEX 01 01:13:20
  TRACK 62 AUDIO
    TITLE "7:cjc081_2066"
    INDEX 01 01:14:59
  TRACK 63 AUDIO
    TITLE "0:"
    INDEX 01 01:25:21
